<?xml version="1.0" ?><!DOCTYPE svg  PUBLIC '-//W3C//DTD SVG 1.1//EN'  'http://www.w3.org/Graphics/SVG/1.1/DTD/svg11.dtd'><svg height="128px" id="Layer_1" style="enable-background:new 0 0 128 128;" version="1.1" viewBox="0 0 128 128" width="128px" xml:space="preserve" xmlns="http://www.w3.org/2000/svg" xmlns:xlink="http://www.w3.org/1999/xlink"><g><path d="M35.287,86.19c-0.27,0-0.539-0.073-0.778-0.218C27.798,81.9,25.7,74.459,28.695,65.478   c-2.773-4.041-4.234-8.595-4.234-13.219c0-15.215,15.562-27.594,34.689-27.594S93.84,37.043,93.84,52.258   S78.278,79.853,59.15,79.853c-6.116,0-12.105-1.276-17.365-3.696c-3.279,1.241-4.792,2.947-4.999,8.589   c-0.02,0.531-0.319,1.013-0.787,1.265C35.776,86.131,35.531,86.19,35.287,86.19z M59.15,27.664   c-17.474,0-31.689,11.033-31.689,24.594c0,4.232,1.423,8.416,4.115,12.097c0.295,0.403,0.369,0.926,0.2,1.395   c-2.492,6.896-1.684,12.523,2.244,16.132c0.682-4.78,2.798-7.194,7.352-8.765c0.373-0.129,0.782-0.105,1.14,0.066   c4.992,2.4,10.746,3.669,16.639,3.669c17.474,0,31.689-11.033,31.689-24.594S76.624,27.664,59.15,27.664z" style="fill:#313335;"/></g><g><path d="M97.469,107.863c-0.238,0-0.477-0.057-0.695-0.171c-0.479-0.25-0.785-0.738-0.804-1.277   c-0.145-4.18-1.104-5.468-3.299-6.392c-3.911,1.874-8.347,2.861-12.874,2.861c-12.928,0-23.762-7.807-25.76-18.563   c-0.09-0.484,0.063-0.981,0.41-1.331c0.347-0.349,0.844-0.506,1.328-0.419c2.355,0.42,4.747,0.633,7.109,0.633   c14.672,0,27.335-7.729,30.795-18.796c0.141-0.451,0.486-0.809,0.931-0.966c0.445-0.157,0.938-0.096,1.332,0.166   c6.313,4.202,9.933,10.499,9.933,17.277c0,3.642-1.073,7.23-3.111,10.424c2.203,7.13,0.589,13.051-4.482,16.316   C98.034,107.783,97.752,107.863,97.469,107.863z M92.6,96.885c0.174,0,0.349,0.03,0.515,0.091c3.239,1.184,4.907,3.021,5.55,6.379   c2.336-2.761,2.713-6.846,1.029-11.79c-0.153-0.449-0.084-0.944,0.185-1.335c1.961-2.844,2.997-6.076,2.997-9.347   c0-5.184-2.539-10.067-7.032-13.643c-4.632,11.26-17.841,18.962-32.958,18.962c-1.779,0-3.573-0.112-5.357-0.335   c2.697,8.123,11.849,14.016,22.27,14.016c4.293,0,8.484-0.98,12.121-2.835C92.132,96.94,92.365,96.885,92.6,96.885z" style="fill:#EE3E36;"/></g><g><path d="M58.134,65.355c-0.227,0-0.453-0.051-0.662-0.154c-15.329-7.544-14.825-15.413-14.306-17.646   c0.772-3.317,3.696-5.546,7.277-5.546c2.381,0,4.804,0.98,6.944,2.786c2.086-1.864,4.526-2.875,6.998-2.875   c3.721,0,6.8,2.299,7.66,5.722c0.543,2.16,1.195,9.807-13.203,17.535C58.622,65.295,58.378,65.355,58.134,65.355z M50.443,45.009   c-2.189,0-3.899,1.267-4.355,3.227c-0.756,3.246,1.968,8.797,12.016,13.927c9.363-5.208,11.856-10.513,11.033-13.789   c-0.52-2.065-2.429-3.453-4.751-3.453c-2.052,0-4.129,1.052-5.851,2.961c-0.278,0.309-0.672,0.488-1.087,0.495   c-0.421,0.01-0.815-0.157-1.104-0.456C54.523,46.043,52.428,45.009,50.443,45.009z" style="fill:#EE3E36;"/></g><g><path d="M57.27,74.004c-0.828,0-1.5-0.671-1.5-1.5s0.672-1.5,1.5-1.5c14.077,0,25.529-8.86,25.529-19.751   c0-0.829,0.672-1.5,1.5-1.5s1.5,0.671,1.5,1.5C85.799,63.798,73.001,74.004,57.27,74.004z" style="fill:#313335;"/></g><rect height="128" id="_x3C_Slice_x3E__4_" style="fill:none;" width="128" x="0.5" y="1.5"/></svg>