<?xml version="1.0" ?><!DOCTYPE svg  PUBLIC '-//W3C//DTD SVG 1.1//EN'  'http://www.w3.org/Graphics/SVG/1.1/DTD/svg11.dtd'><svg enable-background="new 0 0 128 128" height="128px" id="Layer_1" version="1.1" viewBox="0 0 128 128" width="128px" xml:space="preserve" xmlns="http://www.w3.org/2000/svg" xmlns:xlink="http://www.w3.org/1999/xlink"><circle cx="66" cy="103" fill="#2C3E50" r="3"/><path d="M89,14H40c-5.5,0-10,4.5-10,10v81c0,5.5,4.5,10,10,10h49c5.5,0,10-4.5,10-10V24C99,18.5,94.5,14,89,14z   M95,105c0,3.3-2.7,6-6,6H40c-3.3,0-6-2.7-6-6V24c0-3.3,2.7-6,6-6h49c3.3,0,6,2.7,6,6V105z" fill="#2C3E50"/><path d="M40,24v72h49V24H40z M87,94H42V26h45V94z" fill="#3B97D3"/></svg>